# xmcd
#
# Track frame offsets:
#	300
#	16797
#	33134
#	51163
#	67417
#	81479
#	101551
#	120855
#	138564
#	155604
#	174531
#
# Disc length: 2528 seconds
#
# Revision: 1
# Processed by: cddbd v1.5.2PL0 Copyright (c) Steve Scherf et al.
# Submitted via: audiograbber 1.83.01
#
DISCID=9109dc0b
DTITLE=Various Artist - Street April 09 CD1
DYEAR=2009
DGENRE=R&B
TTITLE0=Keri Hilson Ft Timbaland - Return The Favour (Radio Edit)
TTITLE1=T-Pain Ft Chris Brown - Freeze (Album Version)
TTITLE2=Flo Rida - Sugar (Radio Edit)
TTITLE3=The Madame Project - Chemistry (Radio Edit)
TTITLE4=Alesha Dixon - Let's Get Excited (Redzone Radio Mix)
TTITLE5=Butcherd Beats - On The Beach
TTITLE6=Kraak and Smaak Ft Ben Westbeach - Squeeze Me (Redlight Remix)
TTITLE7=Play Ents Vs Tee Boy Ft Zest - Jump In The Middle and Skank
TTITLE8=Fstreet - Hypnotized (Radio Edit)
TTITLE9=Kase - Check With K (EST Explicit Mix)
TTITLE10=Rayedan - Boom Boom (Radio Version)
EXTD=
EXTT0=
EXTT1=
EXTT2=
EXTT3=
EXTT4=
EXTT5=
EXTT6=
EXTT7=
EXTT8=
EXTT9=
EXTT10=
PLAYORDER=
